HIERARCHY
ROOT Hips
{
	OFFSET 0.000000 0.000000 0.000000
	CHANNELS 6 Xposition Yposition Zposition Xrotation Yrotation Zrotation
	JOINT LeftUpLeg_virtual
	{
		OFFSET 0.000000 0.000000 0.000000
		CHANNELS 3 Xrotation Yrotation Zrotation
		JOINT LeftUpLeg
		{
			OFFSET 11.394100 -6.187798 -0.413800
			CHANNELS 3 Xrotation Yrotation Zrotation
			JOINT LeftLeg
			{
				OFFSET 0.430247 -32.302673 3.732800
				CHANNELS 3 Xrotation Yrotation Zrotation
				JOINT LeftFoot
				{
					OFFSET -0.430247 -48.264931 -6.423300
					CHANNELS 3 Xrotation Yrotation Zrotation
					JOINT LeftToeBase
					{
						OFFSET 4.230900 -16.068199 23.438400
						CHANNELS 3 Xrotation Yrotation Zrotation
						JOINT LeftToe_End
						{
							OFFSET 4.510700 0.695400 19.974600
							CHANNELS 3 Xrotation Yrotation Zrotation
							End Site
							{
								OFFSET 0 0 0
							}
						}
					}
				}
			}
		}
	}
	JOINT RightUpLeg_virtual
	{
		OFFSET 0.000000 0.000000 0.000000
		CHANNELS 3 Xrotation Yrotation Zrotation
		JOINT RightUpLeg
		{
			OFFSET -11.333700 -6.187798 -0.413800
			CHANNELS 3 Xrotation Yrotation Zrotation
			JOINT RightLeg
			{
				OFFSET -0.430392 -32.302628 3.733000
				CHANNELS 3 Xrotation Yrotation Zrotation
				JOINT RightFoot
				{
					OFFSET 0.430392 -48.264973 -6.423500
					CHANNELS 3 Xrotation Yrotation Zrotation
					JOINT RightToeBase
					{
						OFFSET -4.230900 -16.068199 23.438400
						CHANNELS 3 Xrotation Yrotation Zrotation
						JOINT RightToe_End
						{
							OFFSET -4.510700 0.695400 19.974600
							CHANNELS 3 Xrotation Yrotation Zrotation
							End Site
							{
								OFFSET 0 0 0
							}
						}
					}
				}
			}
		}
	}
	JOINT Spine_virtual
	{
		OFFSET 0.000000 0.000000 0.000000
		CHANNELS 3 Xrotation Yrotation Zrotation
		JOINT Spine
		{
			OFFSET -0.002400 12.777504 0.315300
			CHANNELS 3 Xrotation Yrotation Zrotation
			JOINT Spine1
			{
				OFFSET -0.002067 5.816869 0.032633
				CHANNELS 3 Xrotation Yrotation Zrotation
				JOINT Spine1_split
				{
					OFFSET -0.002067 5.816869 0.032633
					CHANNELS 3 Xrotation Yrotation Zrotation
					JOINT Spine2
					{
						OFFSET -0.002067 5.816869 0.032633
						CHANNELS 3 Xrotation Yrotation Zrotation
						JOINT Neck_virtual
						{
							OFFSET 0.000000 0.000000 0.000000
							CHANNELS 3 Xrotation Yrotation Zrotation
							JOINT Neck
							{
								OFFSET -0.003700 21.199493 -0.826900
								CHANNELS 3 Xrotation Yrotation Zrotation
								JOINT Head
								{
									OFFSET 0.000000 20.442200 4.834800
									CHANNELS 3 Xrotation Yrotation Zrotation
									JOINT HeadTop_End
									{
										OFFSET 0.000000 34.668396 4.968400
										CHANNELS 3 Xrotation Yrotation Zrotation
										End Site
										{
											OFFSET 0 0 0
										}
									}
								}
							}
						}
						JOINT LeftShoulder_virtual
						{
							OFFSET 0.000000 0.000000 0.000000
							CHANNELS 3 Xrotation Yrotation Zrotation
							JOINT LeftShoulder
							{
								OFFSET 3.288150 8.794197 -1.372250
								CHANNELS 3 Xrotation Yrotation Zrotation
								JOINT LeftShoulder_split
								{
									OFFSET 3.288150 8.794197 -1.372250
									CHANNELS 3 Xrotation Yrotation Zrotation
									JOINT LeftArm
									{
										OFFSET 11.953299 -2.279007 -0.146200
										CHANNELS 3 Xrotation Yrotation Zrotation
										JOINT LeftForeArm
										{
											OFFSET 18.448900 0.000000 0.000000
											CHANNELS 3 Xrotation Yrotation Zrotation
											JOINT LeftHand
											{
												OFFSET 29.527798 0.000000 0.000000
												CHANNELS 3 Xrotation Yrotation Zrotation
												End Site
												{
													OFFSET 0 0 0
												}
											}
										}
									}
								}
							}
						}
						JOINT RightShoulder_virtual
						{
							OFFSET 0.000000 0.000000 0.000000
							CHANNELS 3 Xrotation Yrotation Zrotation
							JOINT RightShoulder
							{
								OFFSET -3.249400 8.794197 -1.372250
								CHANNELS 3 Xrotation Yrotation Zrotation
								JOINT RightShoulder_split
								{
									OFFSET -3.249400 8.794197 -1.372250
									CHANNELS 3 Xrotation Yrotation Zrotation
									JOINT RightArm
									{
										OFFSET -11.953299 -2.279007 -0.146200
										CHANNELS 3 Xrotation Yrotation Zrotation
										JOINT RightForeArm
										{
											OFFSET -18.448900 0.000000 0.000000
											CHANNELS 3 Xrotation Yrotation Zrotation
											JOINT RightHand
											{
												OFFSET -29.527802 0.000000 0.000000
												CHANNELS 3 Xrotation Yrotation Zrotation
												End Site
												{
													OFFSET 0 0 0
												}
											}
										}
									}
								}
							}
						}
					}
				}
			}
		}
	}
}
MOTION
Frames: 4
Frame Time: 0.03333333
-7.848269 25.005859 -80.808807 0.000000 0.000000 0.000000 -76.079660 24.576544 6.056286 -61.584373 -5.250769 27.134330 59.386200 4.406864 -6.555187 23.206695 10.106531 -19.909286 2.192698 -2.023012 12.862240 0.000000 0.000000 0.000000 -75.952783 31.696029 9.527598 -66.046311 6.270453 -36.095569 103.650402 11.151332 -1.848541 31.787595 -13.318335 35.324410 -1.161538 5.945389 -55.897076 0.000000 0.000000 0.000000 -79.706484 23.458819 1.942792 55.557093 12.370868 2.083046 5.823019 -0.401742 4.806536 -0.017775 0.106798 -0.025797 0.000000 0.000000 0.000000 16.746884 4.468947 3.151836 1.540817 -4.654567 -2.445130 -24.295278 -40.975008 -31.583304 0.000000 0.000000 0.000000 13.234779 1.432069 2.510865 -1.079379 -6.479787 -1.205796 11.801224 3.193673 -4.936192 -20.286949 -5.927341 -44.703779 -49.222841 -63.926261 -31.940263 0.000000 0.000000 0.000000 14.158718 2.199463 4.070213 -1.986315 -9.727331 13.060146 18.204114 12.022016 -4.646090 -38.595015 11.294664 48.246452 -31.461033 31.874772 13.640131 0.000000 0.000000 0.000000 
-8.398057 25.048584 -84.712051 0.000000 0.000000 0.000000 -78.874943 23.386306 5.398698 -57.419324 -7.667729 25.899326 59.139999 2.723604 -4.147450 21.897475 10.362368 -17.736937 2.331406 -2.372521 12.741343 0.000000 0.000000 0.000000 -79.478267 31.399083 10.235343 -52.707668 7.810705 -29.790536 98.434617 11.162985 -3.842136 28.920298 -12.056618 38.067178 -7.839164 8.863813 -53.948133 0.000000 0.000000 0.000000 -82.914952 23.020050 1.826086 53.088359 11.877409 2.373749 6.405259 -1.098498 4.843774 0.035136 0.353292 -0.130395 0.000000 0.000000 0.000000 15.926109 3.768684 3.210152 1.040786 -3.506062 0.433350 -13.351155 -39.702981 -20.725343 0.000000 0.000000 0.000000 13.402844 0.810813 2.891428 -0.856568 -5.179185 -0.182298 11.332565 1.494426 -5.882871 -15.332064 -4.555373 -40.584929 -49.400743 -65.514020 -34.151950 0.000000 0.000000 0.000000 13.927613 1.550815 4.220965 -2.472261 -7.218555 14.917159 20.388420 10.736447 -4.767187 -24.995697 18.449975 46.710134 -28.987022 27.850784 10.722917 0.000000 0.000000 0.000000 
-8.931026 25.003464 -88.532379 0.000000 0.000000 0.000000 -81.544713 22.740702 4.426249 -53.859508 -9.492397 25.212286 59.957832 1.292736 -2.100034 21.590501 9.880255 -15.681498 2.512896 -2.485216 12.215588 0.000000 0.000000 0.000000 -81.743909 31.210249 9.873640 -42.126155 11.943093 -23.704013 94.122944 11.189849 -5.863825 26.970880 -11.785181 37.706640 -12.607990 9.215386 -49.480609 0.000000 0.000000 0.000000 -85.752123 23.092158 1.441501 50.324680 10.499637 2.743634 6.244095 -2.032594 4.784418 0.243311 0.683969 -0.166347 0.000000 0.000000 0.000000 14.684999 2.867159 3.211205 1.015107 -2.571218 3.651433 -8.349408 -37.827821 -12.532467 0.000000 0.000000 0.000000 12.774538 0.022710 3.341751 -0.710394 -4.294130 1.095715 11.058916 -0.905352 -6.303523 -10.405369 -2.558046 -37.533505 -46.353748 -65.789646 -33.298173 0.000000 0.000000 0.000000 12.933239 0.613375 4.298726 -2.849279 -4.936448 15.927036 21.412307 9.540593 -4.889961 -11.226468 25.858063 43.800094 -26.202829 24.514664 7.952347 0.000000 0.000000 0.000000 
-9.423099 25.288540 -92.339188 0.000000 0.000000 0.000000 -84.083146 22.924353 3.934071 -50.588558 -10.241029 25.097916 60.521692 0.425181 -0.646766 21.469860 9.116610 -13.791793 3.304667 -2.373188 11.512959 0.000000 0.000000 0.000000 -83.775077 30.932834 9.172520 -36.283461 16.708912 -18.954832 92.252387 10.583014 -6.941184 27.162351 -12.461542 34.235739 -10.492736 5.484993 -43.688673 0.000000 0.000000 0.000000 -88.255538 23.612116 1.247547 47.012373 8.127415 2.966221 5.225174 -3.227502 4.575769 0.348661 0.946011 -0.126365 0.000000 0.000000 0.000000 13.030986 1.749561 3.104296 1.583861 -1.800923 6.956274 -8.356305 -35.247382 -6.736396 0.000000 0.000000 0.000000 11.358508 -0.901825 3.752078 -0.707224 -3.795627 2.297164 11.508926 -3.344322 -6.381913 -5.028226 -0.119406 -35.709305 -39.643425 -64.413936 -28.874785 0.000000 0.000000 0.000000 11.169554 -0.665988 4.181504 -3.038588 -3.596537 15.944443 22.230558 8.002627 -4.987050 1.381517 32.010262 40.915166 -23.713319 25.242354 6.113172 0.000000 0.000000 0.000000 
